# xmcd CD database file
#
# Track frame offsets:
#	150
#	33303
#	61164
#	75087
#	93052
#	117753
#	135509
#	163294
#	198876
#	224468
#	245509
#
# Disc length: 3622 seconds
#
# Revision: 0
# Processed by: cddbd v1.5.2PL0 Copyright (c) Steve Scherf et al.
# Submitted via: CDex 1.51
#
DISCID=850e240b
DTITLE=Deuter - Flowers Of Silence
DYEAR=2012
DGENRE=New Age
TTITLE0=Hollow Bamboo 1
TTITLE1=Hollow Bamboo 2
TTITLE2=Mist In A Temple Cave
TTITLE3=No Water No Moon
TTITLE4=Cranes Unfold
TTITLE5=Silent Stories
TTITLE6=Lotus For Lao Tzu
TTITLE7=Flowers Of Silence
TTITLE8=Signatures On Water
TTITLE9=Fragile Air
TTITLE10=Kyoto Garden
EXTD=YEAR: 2012
EXTT0=
EXTT1=
EXTT2=
EXTT3=
EXTT4=
EXTT5=
EXTT6=
EXTT7=
EXTT8=
EXTT9=
EXTT10=
PLAYORDER=
